<?xml version="1.0" encoding="iso-8859-1"?>
<!-- Generator: Adobe Illustrator 19.0.0, SVG Export Plug-In . SVG Version: 6.00 Build 0)  -->
<svg version="1.1" id="Layer_1" xmlns="http://www.w3.org/2000/svg" xmlns:xlink="http://www.w3.org/1999/xlink" x="0px" y="0px"
	 viewBox="0 0 512 512" style="enable-background:new 0 0 512 512;" xml:space="preserve">
<polygon style="fill:#52A2E7;" points="298.364,399.851 473.301,399.851 473.301,512 39.376,512 39.376,399.851 213.002,399.851 "/>
<g>
	<path style="fill:#FFBCAB;" d="M26.509,51.056c0-7.077-5.791-12.868-12.868-12.868l0,0c-7.077,0-12.868,5.791-12.868,12.868v57.529
		v90.14h75.38l0.355-31.08l41.112-39.178c5.005-5.005,5.005-13.194,0-18.198l0,0c-5.005-5.005-13.194-5.005-18.198,0l-20.73,20.73
		v-22.412v-57.53c0-7.077-5.791-12.868-12.868-12.868l0,0c-7.077,0-12.868,5.791-12.868,12.868h-0.709
		c0-7.077-5.791-12.868-12.868-12.868l0,0C32.299,38.188,26.509,43.979,26.509,51.056z"/>
	<rect x="0.772" y="241.027" style="fill:#FFBCAB;" width="75.64" height="270.973"/>
	<rect x="435.483" y="241.027" style="fill:#FFBCAB;" width="75.64" height="270.973"/>
	<rect x="220.087" y="345.725" style="fill:#FFBCAB;" width="70.635" height="68.723"/>
	<path style="fill:#FFBCAB;" d="M325.731,399.851c0,39.118-31.712,70.829-70.829,70.829s-70.829-31.712-70.829-70.829H325.731z"/>
</g>
<path style="fill:#FF9478;" d="M26.902,103.206v-52.15c0-7.077,5.791-12.868,12.868-12.868l0,0c7.077,0,12.868,5.791,12.868,12.868
	v52.15c0,2.971-2.408,5.379-5.379,5.379H32.282C29.311,108.585,26.902,106.176,26.902,103.206z"/>
<path style="fill:#FFBCAB;" d="M485.492,51.056c0-7.077,5.791-12.868,12.868-12.868l0,0c7.077,0,12.868,5.791,12.868,12.868v57.529
	v90.14h-75.38l-0.355-31.08l-41.112-39.178c-5.004-5.005-5.004-13.194,0-18.198l0,0c5.005-5.005,13.194-5.005,18.198,0l20.73,20.73
	v-22.412v-57.53c0-7.077,5.791-12.868,12.868-12.868l0,0c7.077,0,12.868,5.791,12.868,12.868h0.709
	c0-7.077,5.791-12.868,12.868-12.868l0,0C479.702,38.188,485.492,43.979,485.492,51.056z"/>
<path style="fill:#FF9478;" d="M486.106,103.206v-52.15c0-7.077-5.791-12.868-12.868-12.868l0,0
	c-7.077,0-12.868,5.791-12.868,12.868v52.15c0,2.971,2.409,5.379,5.379,5.379h14.979
	C483.697,108.585,486.106,106.176,486.106,103.206z"/>
<g>
	<rect x="0.772" y="192.47" style="fill:#52A2E7;" width="75.64" height="51.263"/>
	<rect x="435.483" y="192.47" style="fill:#52A2E7;" width="75.64" height="51.263"/>
</g>
<rect x="220.087" y="332.8" style="fill:#FF9478;" width="70.635" height="43.714"/>
<path style="fill:#FFBCAB;" d="M353.054,133.868V281.83c0,43.677-35.736,79.412-79.412,79.412h-36.312
	c-43.677,0-79.412-35.736-79.412-79.412V133.868H353.054z"/>
<rect x="157.916" y="110.216" style="fill:#FF3F62;" width="195.135" height="65.327"/>
<g>
	<circle style="fill:#781900;" cx="226.064" cy="227.725" r="8.847"/>
	<circle style="fill:#781900;" cx="284.913" cy="227.725" r="8.847"/>
	<path style="fill:#781900;" d="M339.159,120.661c18.513,0,33.522-15.009,33.522-33.522s-15.009-33.522-33.522-33.522l0,0
		c0-8.981,1.291-20.932-13.191-35.416c-14.482-14.482-37.964-14.482-52.447,0L260.502,0L239.24,18.2
		c-14.482-14.482-37.964-14.482-52.447,0s-12.115,27.783-12.115,35.416l0,0c-18.514,0-33.522,15.009-33.522,33.522
		s15.009,33.522,33.522,33.522H339.159z"/>
</g>
<path style="fill:#F8F6F8;" d="M339.159,219.179c0,7.176-5.818,12.994-12.994,12.994s-12.994-5.818-12.994-12.994
	c0-7.176,12.994-20.454,12.994-20.454S339.159,212.002,339.159,219.179z"/>
<g>
	<path style="fill:#FF9478;" d="M143.119,253.642c-14.313,0-25.917-11.604-25.917-25.917c0-14.313,11.604-25.917,25.917-25.917
		h14.798v51.833L143.119,253.642L143.119,253.642z"/>
	<path style="fill:#FF9478;" d="M367.853,201.808c14.313,0,25.917,11.604,25.917,25.917s-11.604,25.917-25.917,25.917h-14.798
		v-51.833L367.853,201.808L367.853,201.808z"/>
</g>
<circle style="fill:#F8F6F8;" cx="256.993" cy="279.301" r="21.335"/>
<path style="fill:#FF9478;" d="M256.991,310.435c-17.169,0-31.136-13.967-31.136-31.136c0-17.169,13.967-31.137,31.136-31.137
	s31.136,13.968,31.136,31.137C288.127,296.468,274.16,310.435,256.991,310.435z M256.991,263.837
	c-8.525,0-15.462,6.937-15.462,15.463c0,8.525,6.937,15.462,15.462,15.462c8.525,0,15.462-6.937,15.462-15.462
	C272.453,270.773,265.516,263.837,256.991,263.837z"/>
<g>
	<rect x="76.403" y="399.851" style="fill:#315591;" width="33.468" height="110.947"/>
	<rect x="402.38" y="400.279" style="fill:#315591;" width="33.468" height="110.947"/>
</g>
<g>
</g>
<g>
</g>
<g>
</g>
<g>
</g>
<g>
</g>
<g>
</g>
<g>
</g>
<g>
</g>
<g>
</g>
<g>
</g>
<g>
</g>
<g>
</g>
<g>
</g>
<g>
</g>
<g>
</g>
</svg>
