<?xml version="1.0" encoding="iso-8859-1"?>
<!-- Generator: Adobe Illustrator 19.0.0, SVG Export Plug-In . SVG Version: 6.00 Build 0)  -->
<svg version="1.1" id="Layer_1" xmlns="http://www.w3.org/2000/svg" xmlns:xlink="http://www.w3.org/1999/xlink" x="0px" y="0px"
	 viewBox="0 0 512 512" style="enable-background:new 0 0 512 512;" xml:space="preserve">
<circle style="fill:#F2CF61;" cx="256" cy="256" r="256"/>
<path style="fill:#CC584C;" d="M396,320c-15.82-52-34.14-93.176-44-116c-32.168,1.468-92-30.324-92-72c0-28-24.032-49.172-52-20
	c-10.044,10.46-68,72-68,72l200.256,200H468v-19.92c0-23.708-21.256-44.08-44-44.08H396z"/>
<g>
	<path style="fill:#B34D43;" d="M424,320h-28c-15.82-52-34.14-93.176-44-116c-32.168,1.468-92-30.324-92-72
		c0-28-24.032-49.172-52-20c-0.916,0.952-2.236,2.336-3.86,4.048C230.296,92.984,252,113.396,252,140c0,41.676,59.832,73.468,92,72
		c9.86,22.824,28.18,64,44,116h28c22.744,0,44,20.368,44,44.08V384h8v-19.92C468,340.368,446.744,320,424,320z"/>
	<path style="fill:#B34D43;" d="M348.256,360L155.524,167.52c-4.784,5.08-8.876,9.416-11.644,12.36L340.256,376H468v-11.92
		c0-1.372-0.084-2.732-0.228-4.08H348.256z"/>
</g>
<g>
	<path style="fill:#F5F5F5;" d="M378.128,267.544c-1.456-3.868-2.896-7.604-4.312-11.248l-108.508,52.852l8.984,8.972
		L378.128,267.544z"/>
	<path style="fill:#F5F5F5;" d="M249.292,293.152l8.984,8.972l112.076-54.588c-1.544-3.856-3.064-7.588-4.528-11.14L249.292,293.152
		z"/>
	<path style="fill:#F5F5F5;" d="M385.452,287.764c-1.352-3.868-2.712-7.672-4.06-11.368l-100.08,48.744l8.984,8.968L385.452,287.764
		z"/>
</g>
<path style="fill:#B34D43;" d="M424,320h-28c-15.82-52-34.14-93.176-44-116c-8.868,0.404-20.444,18.12-13.176,35.268
	c9.596,22.64,20.568,49.928,29.36,76.688c1.324,4.032,5.732,12.044,12.732,12.044c10,0,19.084,0,19.084,0
	c22.744,0,44,20.368,44,44.08l24,1.812v-9.812C468,340.368,446.744,320,424,320z"/>
<path style="fill:#E6E6E6;" d="M348.256,368L151.644,171.64C144.7,179.008,140,184,140,184l200.256,200H468v-16H348.256z"/>
<circle style="fill:#F5F5F5;" cx="352.16" cy="236" r="8"/>
<circle style="fill:#242424;" cx="352.16" cy="236" r="4"/>
<circle style="fill:#F5F5F5;" cx="360.16" cy="260" r="8"/>
<circle style="fill:#242424;" cx="360.16" cy="260" r="4"/>
<circle style="fill:#F5F5F5;" cx="372.16" cy="284" r="8"/>
<circle style="fill:#242424;" cx="372.16" cy="284" r="4"/>
<circle style="fill:#F5F5F5;" cx="380.16" cy="308" r="8"/>
<circle style="fill:#242424;" cx="380.16" cy="308" r="4"/>
<path style="fill:#F5F5F5;" d="M217.672,126.332c8.5,5.832,8.828,11.832,12.664,20.832c3.62,8.496,25.344,22.012,40.108,14.672
	c-6.452-9.028-10.444-19.1-10.444-29.84c0-28-24.032-49.172-52-20c-2.948,3.072-10.04,10.56-18.572,19.584l0,0
	C194.544,126.176,209.172,120.5,217.672,126.332z"/>
<path style="fill:#242424;" d="M34.336,384C78.604,460.496,161.26,512,256,512s177.396-51.504,221.664-128H34.336z"/>
<path style="fill:#263740;" d="M472.82,392c1.656-2.636,3.28-5.3,4.844-8H34.336c1.564,2.7,3.188,5.364,4.844,8H472.82z"/>
<g>
	<path style="fill:#F5F5F5;" d="M136,228H88c-4.416,0-8-3.584-8-8s3.584-8,8-8h48c4.416,0,8,3.584,8,8S140.416,228,136,228z"/>
	<path style="fill:#F5F5F5;" d="M56,228h-8c-4.416,0-8-3.584-8-8s3.584-8,8-8h8c4.416,0,8,3.584,8,8S60.416,228,56,228z"/>
	<path style="fill:#F5F5F5;" d="M136,268H48c-4.416,0-8-3.584-8-8c0-4.416,3.584-8,8-8h88c4.416,0,8,3.584,8,8
		C144,264.416,140.416,268,136,268z"/>
	<path style="fill:#F5F5F5;" d="M176,268h-8c-4.416,0-8-3.584-8-8c0-4.416,3.584-8,8-8h8c4.416,0,8,3.584,8,8
		C184,264.416,180.416,268,176,268z"/>
	<path style="fill:#F5F5F5;" d="M88,308H48c-4.416,0-8-3.584-8-8s3.584-8,8-8h40c4.416,0,8,3.584,8,8S92.416,308,88,308z"/>
	<path style="fill:#F5F5F5;" d="M208,308h-8c-4.416,0-8-3.584-8-8s3.584-8,8-8h8c4.416,0,8,3.584,8,8S212.416,308,208,308z"/>
	<path style="fill:#F5F5F5;" d="M168,308h-8c-4.416,0-8-3.584-8-8s3.584-8,8-8h8c4.416,0,8,3.584,8,8S172.416,308,168,308z"/>
	<path style="fill:#F5F5F5;" d="M128,308h-8c-4.416,0-8-3.584-8-8s3.584-8,8-8h8c4.416,0,8,3.584,8,8S132.416,308,128,308z"/>
</g>
<g>
</g>
<g>
</g>
<g>
</g>
<g>
</g>
<g>
</g>
<g>
</g>
<g>
</g>
<g>
</g>
<g>
</g>
<g>
</g>
<g>
</g>
<g>
</g>
<g>
</g>
<g>
</g>
<g>
</g>
</svg>
