<?xml version="1.0" encoding="iso-8859-1"?>
<!-- Generator: Adobe Illustrator 19.0.0, SVG Export Plug-In . SVG Version: 6.00 Build 0)  -->
<svg version="1.1" id="Layer_1" xmlns="http://www.w3.org/2000/svg" xmlns:xlink="http://www.w3.org/1999/xlink" x="0px" y="0px"
	 viewBox="0 0 480.192 480.192" style="enable-background:new 0 0 480.192 480.192;" xml:space="preserve">
<g>
	<path style="fill:#E5E8E8;" d="M219.408,368.192L187.312,400.2c15.16,10.024,33.288,15.856,52.784,15.856
		s37.624-5.808,52.784-15.832l-32.096-32.032H219.408z"/>
	<path style="fill:#E5E8E8;" d="M112.096,104c8.824,0,16-7.176,16-16V32c0-8.824-7.176-16-16-16s-16,7.176-16,16v56
		C96.096,96.824,103.272,104,112.096,104z"/>
	<path style="fill:#E5E8E8;" d="M273.08,357.672l32.408,32.408c18.784-17.528,30.608-42.416,30.608-70.08
		c0-12.344-2.424-24.112-6.688-34.968l-42.512,24.296L273.08,357.672z"/>
	<path style="fill:#E5E8E8;" d="M322.296,270.672c-15.512-25.744-42.2-43.648-74.2-46.264v51.064l32.104,19.256L322.296,270.672z"/>
	<path style="fill:#E5E8E8;" d="M368.096,104c8.824,0,16-7.176,16-16V32c0-8.824-7.176-16-16-16s-16,7.176-16,16v56
		C352.096,96.824,359.272,104,368.096,104z"/>
	<path style="fill:#E5E8E8;" d="M232.096,275.472v-51.064c-32,2.616-58.688,20.52-74.2,46.264L200,294.728L232.096,275.472z"/>
</g>
<polygon style="fill:#E07940;" points="222.128,352.192 258.064,352.192 270.72,307.8 240.096,289.376 209.472,307.824 "/>
<path style="fill:#E5E8E8;" d="M207.112,357.672l-13.816-48.344l-42.512-24.296c-4.264,10.856-6.688,22.624-6.688,34.968
	c0,27.656,11.824,52.544,30.608,70.08L207.112,357.672z"/>
<path style="fill:#9CD9F1;" d="M16.096,440c0,13.24,10.768,24.192,24,24.192h400c13.232,0,24-10.952,24-24.192V176.192h-448V440z
	 M416.096,280h16v16h-16V280z M416.096,312h16v16h-16V312z M416.096,344h16v16h-16V344z M384.096,312h16v16h-16V312z M240.096,208
	c61.76,0,112,50.24,112,112s-50.24,112-112,112s-112-50.24-112-112C128.096,258.248,178.336,208,240.096,208z M80.096,312h16v16h-16
	V312z M48.096,280h16v16h-16V280z M48.096,312h16v16h-16V312z M48.096,344h16v16h-16V344z"/>
<path style="fill:#DA544A;" d="M440.096,72.192h-40V88c0,17.648-14.352,32-32,32s-32-14.352-32-32V72.192h-192V88
	c0,17.648-14.352,32-32,32s-32-14.352-32-32V72.192h-40c-13.232,0-24,10.576-24,23.808v64.192h448V96
	C464.096,82.768,453.328,72.192,440.096,72.192z M216.096,144h-16v-16h16V144z M248.096,144h-16v-16h16V144z M280.096,144h-16v-16
	h16V144z"/>
<g>
	<path style="fill:#334C5B;" d="M440.096,56.192h-40V32c0-17.648-14.352-32-32-32s-32,14.352-32,32v24.192h-192V32
		c0-17.648-14.352-32-32-32s-32,14.352-32,32v24.192h-40c-22.056,0-40,17.76-40,39.808v72v272c0,22.056,17.944,40.192,40,40.192h400
		c22.056,0,40-18.136,40-40.192V168V96C480.096,73.952,462.152,56.192,440.096,56.192z M352.096,32c0-8.824,7.176-16,16-16
		s16,7.176,16,16v56c0,8.824-7.176,16-16,16s-16-7.176-16-16V32z M96.096,32c0-8.824,7.176-16,16-16s16,7.176,16,16v56
		c0,8.824-7.176,16-16,16s-16-7.176-16-16V32z M464.096,440c0,13.24-10.768,24.192-24,24.192h-400c-13.232,0-24-10.952-24-24.192
		V176.192h448V440z M464.096,160.192h-448V96c0-13.232,10.768-23.808,24-23.808h40V88c0,17.648,14.352,32,32,32s32-14.352,32-32
		V72.192h192V88c0,17.648,14.352,32,32,32s32-14.352,32-32V72.192h40c13.232,0,24,10.576,24,23.808V160.192z"/>
	<path style="fill:#334C5B;" d="M240.096,432c61.76,0,112-50.24,112-112s-50.24-112-112-112s-112,50.24-112,112
		S178.336,432,240.096,432z M240.096,416c-19.496,0-37.624-5.784-52.784-15.808l32.096-32h41.376L292.88,400.2
		C277.72,410.224,259.592,416,240.096,416z M336.096,320c0,27.656-11.824,52.544-30.608,70.08l-32.408-32.408l13.816-48.344
		l42.512-24.296C333.672,295.888,336.096,307.656,336.096,320z M248.096,224.408c32,2.616,58.688,20.52,74.2,46.264l-42.104,24.056
		l-32.096-19.256V224.408z M270.72,307.8l-12.656,44.392h-35.928L209.48,307.8l30.616-18.376L270.72,307.8z M232.096,224.408v51.064
		l-32.104,19.256l-42.104-24.056C173.408,244.928,200.096,227.024,232.096,224.408z M150.784,285.04l42.512,24.296l13.816,48.344
		l-32.408,32.408c-18.784-17.536-30.608-42.424-30.608-70.088C144.096,307.656,146.52,295.888,150.784,285.04z"/>
	<rect x="232.096" y="128" style="fill:#334C5B;" width="16" height="16"/>
	<rect x="264.096" y="128" style="fill:#334C5B;" width="16" height="16"/>
	<rect x="200.096" y="128" style="fill:#334C5B;" width="16" height="16"/>
	<rect x="416.096" y="344" style="fill:#334C5B;" width="16" height="16"/>
	<rect x="416.096" y="312" style="fill:#334C5B;" width="16" height="16"/>
	<rect x="416.096" y="280" style="fill:#334C5B;" width="16" height="16"/>
	<rect x="384.096" y="312" style="fill:#334C5B;" width="16" height="16"/>
	<rect x="48.096" y="280" style="fill:#334C5B;" width="16" height="16"/>
	<rect x="48.096" y="312" style="fill:#334C5B;" width="16" height="16"/>
	<rect x="48.096" y="344" style="fill:#334C5B;" width="16" height="16"/>
	<rect x="80.096" y="312" style="fill:#334C5B;" width="16" height="16"/>
</g>
<g>
</g>
<g>
</g>
<g>
</g>
<g>
</g>
<g>
</g>
<g>
</g>
<g>
</g>
<g>
</g>
<g>
</g>
<g>
</g>
<g>
</g>
<g>
</g>
<g>
</g>
<g>
</g>
<g>
</g>
</svg>
